<?xml version="1.0" standalone="no"?>
<!DOCTYPE svg PUBLIC "-//W3C//DTD SVG 20010904//EN"
 "http://www.w3.org/TR/2001/REC-SVG-20010904/DTD/svg10.dtd">
<svg version="1.0" xmlns="http://www.w3.org/2000/svg"
 width="700.000000pt" height="700.000000pt" viewBox="0 0 700.000000 700.000000"
 preserveAspectRatio="xMidYMid meet">
<metadata>
Created by potrace 1.14, written by Peter Selinger 2001-2017
</metadata>
<g transform="translate(0.000000,700.000000) scale(0.100000,-0.100000)"
fill="#000000" stroke="none">
<path d="M1848 5060 l-1647 -1646 202 -202 c111 -111 205 -202 209 -202 4 0
63 57 133 127 l125 126 1 -69 c0 -38 2 -575 3 -1194 l2 -1125 2614 -1 c1438 0
2620 1 2625 3 7 2 10 400 10 1166 0 639 2 1175 4 1190 3 27 9 22 128 -97 68
-69 128 -126 131 -126 4 0 98 91 209 203 l202 202 -479 479 c-264 263 -481
481 -482 485 0 3 -2 398 -3 876 l-1 870 -437 0 c-382 0 -437 -2 -438 -15 0 -8
0 -205 0 -437 l0 -421 -709 706 c-389 389 -718 716 -731 727 l-24 21 -1647
-1646z"/>
</g>
</svg>
